<svg width="24" height="24" viewBox="0 0 24 24" fill="none" xmlns="http://www.w3.org/2000/svg">
<path d="M19.825 21.65L13.475 15.3C12.975 15.6833 12.3625 15.9875 11.6375 16.2125C10.9125 16.4375 10.175 16.55 9.425 16.55C7.44167 16.55 5.7625 15.8625 4.3875 14.4875C3.0125 13.1125 2.325 11.4333 2.325 9.44998C2.325 7.46664 3.0125 5.78748 4.3875 4.41248C5.7625 3.03748 7.44167 2.34998 9.425 2.34998C11.4083 2.34998 13.0875 3.03748 14.4625 4.41248C15.8375 5.78748 16.525 7.46664 16.525 9.44998C16.525 10.2 16.4208 10.9166 16.2125 11.6C16.0042 12.2833 15.7 12.8916 15.3 13.425L21.675 19.8L19.825 21.65ZM9.425 13.9C10.675 13.9 11.7292 13.4708 12.5875 12.6125C13.4458 11.7541 13.875 10.7 13.875 9.44998C13.875 8.19998 13.4458 7.14581 12.5875 6.28748C11.7292 5.42914 10.675 4.99998 9.425 4.99998C8.175 4.99998 7.12083 5.42914 6.2625 6.28748C5.40417 7.14581 4.975 8.19998 4.975 9.44998C4.975 10.7 5.40417 11.7541 6.2625 12.6125C7.12083 13.4708 8.175 13.9 9.425 13.9Z" fill="#F6F6F6"/>
</svg>
